<?xml version="1.0" encoding="utf-8"?>
<!-- Generator: Adobe Illustrator 19.0.0, SVG Export Plug-In . SVG Version: 6.00 Build 0)  -->
<svg version="1.1" id="Layer_1" xmlns="http://www.w3.org/2000/svg" xmlns:xlink="http://www.w3.org/1999/xlink" x="0px" y="0px"
	 viewBox="0 27 200 48" style="enable-background:new 0 27 200 48;" xml:space="preserve">
<style type="text/css">
	.st0{fill:#ACD8E5;}
	.st1{fill:#333333;}
</style>
<path class="st0" d="M26.1,66.3c-2,0.5-4.1,0.7-6.4,0.7c-2.4,0-4.6-0.4-6.6-1.1c-2-0.8-3.7-1.8-5.2-3.2c-1.4-1.4-2.6-3-3.4-5
	c-0.8-1.9-1.2-4.1-1.2-6.4c0-2.4,0.4-4.6,1.2-6.5c0.8-1.9,2-3.6,3.4-5c1.5-1.4,3.2-2.4,5.1-3.1c2-0.7,4.1-1.1,6.4-1.1
	c2.4,0,4.6,0.4,6.6,1.1c2,0.7,3.7,1.7,4.9,2.9l-4.6,5.2c-0.7-0.8-1.6-1.5-2.8-2c-1.2-0.5-2.5-0.8-3.9-0.8c-1.3,0-2.4,0.2-3.5,0.7
	c-1.1,0.5-2,1.1-2.8,1.9c-0.8,0.8-1.4,1.8-1.8,3c-0.4,1.1-0.7,2.4-0.7,3.7c0,1.4,0.2,2.6,0.6,3.8c0.4,1.2,1,2.1,1.7,3
	c0.8,0.8,1.7,1.5,2.9,1.9c1.1,0.5,2.4,0.7,3.9,0.7c0.8,0,1.6-0.1,2.4-0.2c0.8-0.1,1.5-0.3,2.1-0.6v-5.4h-5.7v-5.8h12.3v15.8
	C29.7,65.2,28,65.8,26.1,66.3z"/>
<path class="st1" d="M58,41.6c-0.6-0.8-1.3-1.5-2.2-2c-0.9-0.5-2-0.7-3.3-0.7c-0.7,0-1.3,0.1-2,0.3c-0.7,0.2-1.3,0.5-1.9,0.9
	c-0.6,0.4-1,0.9-1.3,1.6c-0.3,0.6-0.5,1.4-0.5,2.2c0,0.9,0.2,1.6,0.5,2.1c0.3,0.6,0.8,1,1.3,1.4c0.5,0.4,1.2,0.7,1.9,1
	c0.7,0.3,1.4,0.5,2.2,0.8c0.9,0.3,1.9,0.6,2.8,1c0.9,0.4,1.8,0.8,2.6,1.4c0.8,0.6,1.4,1.3,1.9,2.2c0.5,0.9,0.7,2,0.7,3.3
	c0,1.3-0.3,2.5-0.8,3.5c-0.5,1-1.2,1.8-2,2.4c-0.8,0.6-1.8,1.1-2.8,1.4c-1,0.3-2.1,0.5-3.2,0.5c-0.8,0-1.6-0.1-2.4-0.2
	c-0.8-0.2-1.6-0.4-2.3-0.7c-0.7-0.3-1.4-0.7-2-1.3c-0.6-0.5-1.2-1.1-1.7-1.7l2.4-1.7c0.6,1,1.4,1.8,2.4,2.4c1,0.6,2.3,1,3.7,1
	c0.7,0,1.4-0.1,2.1-0.3c0.7-0.2,1.3-0.5,1.9-1c0.6-0.4,1-1,1.4-1.6c0.4-0.6,0.6-1.4,0.6-2.3c0-0.9-0.2-1.7-0.6-2.3
	c-0.4-0.6-0.9-1.1-1.5-1.6c-0.6-0.4-1.3-0.8-2.1-1c-0.8-0.3-1.6-0.6-2.5-0.8c-0.9-0.3-1.8-0.6-2.6-0.9c-0.9-0.4-1.6-0.8-2.3-1.4
	s-1.2-1.3-1.7-2.1C44.2,46.2,44,45.2,44,44c0-1.3,0.3-2.4,0.8-3.3c0.5-0.9,1.2-1.7,2-2.3s1.8-1,2.8-1.3c1-0.3,2-0.4,3-0.4
	c1.8,0,3.4,0.3,4.7,1c1.3,0.6,2.3,1.4,2.9,2.3L58,41.6z"/>
<path class="st1" d="M74.3,64.1h-2.7V39.7h-9v-2.4h20.7v2.4h-9V64.1z"/>
<path class="st1" d="M84.8,64.1h-3l11.6-26.9h2.7l11.5,26.9h-3l-3-7.1H87.7L84.8,64.1z M88.8,54.6h11.8l-5.9-14.3L88.8,54.6z"/>
<path class="st1" d="M114.3,64.1h-2.7V37.3h7.9c1.3,0,2.5,0.1,3.7,0.4c1.1,0.3,2.1,0.7,2.9,1.2c0.8,0.6,1.5,1.3,1.9,2.2
	c0.5,0.9,0.7,2,0.7,3.3c0,1-0.2,1.9-0.5,2.7c-0.4,0.8-0.8,1.5-1.4,2.1s-1.3,1.1-2.2,1.4c-0.8,0.4-1.7,0.6-2.7,0.7l7.9,12.8h-3.3
	l-7.4-12.6h-4.6V64.1z M114.3,49.2h4.7c2.2,0,3.9-0.4,5.1-1.2c1.2-0.8,1.8-2,1.8-3.6c0-0.9-0.2-1.6-0.5-2.2
	c-0.3-0.6-0.8-1.1-1.4-1.5c-0.6-0.4-1.3-0.7-2.1-0.8c-0.8-0.2-1.8-0.3-2.8-0.3h-4.9V49.2z"/>
<path class="st1" d="M142.5,64.1h-2.7V39.7h-9v-2.4h20.7v2.4h-9V64.1z"/>
<path class="st1" d="M158.2,61.7h14.4v2.4h-17.1V37.3h16.7v2.4h-13.9v9.2h13v2.4h-13V61.7z"/>
<path class="st1" d="M180.7,64.1h-2.7V37.3h7.9c1.3,0,2.5,0.1,3.7,0.4c1.1,0.3,2.1,0.7,2.9,1.2c0.8,0.6,1.5,1.3,1.9,2.2
	c0.5,0.9,0.7,2,0.7,3.3c0,1-0.2,1.9-0.5,2.7c-0.4,0.8-0.8,1.5-1.4,2.1s-1.3,1.1-2.2,1.4c-0.8,0.4-1.7,0.6-2.7,0.7l7.9,12.8h-3.3
	l-7.4-12.6h-4.6V64.1z M180.7,49.2h4.7c2.2,0,3.9-0.4,5.1-1.2c1.2-0.8,1.8-2,1.8-3.6c0-0.9-0.2-1.6-0.5-2.2
	c-0.3-0.6-0.8-1.1-1.4-1.5c-0.6-0.4-1.3-0.7-2.1-0.8c-0.8-0.2-1.8-0.3-2.8-0.3h-4.9V49.2z"/>
</svg>
