<?xml version="1.0" encoding="utf-8"?>
<!-- Generator: Adobe Illustrator 19.0.0, SVG Export Plug-In . SVG Version: 6.00 Build 0)  -->
<svg version="1.1" id="Layer_1" xmlns="http://www.w3.org/2000/svg" xmlns:xlink="http://www.w3.org/1999/xlink" x="0px" y="0px"
	 viewBox="280 -380 600 800" style="enable-background:new 280 -380 600 800;" xml:space="preserve">
<style type="text/css">
	.st0{fill:#666666;}
</style>
<path class="st0" d="M805.1,180.5l-91.7-91.7c20.7-31.5,32.8-69.3,32.8-109.8c0-110.5-89.5-200-200-200s-200,89.5-200,200
	s89.5,200,200,200c41.3,0,79.7-12.5,111.6-34l91.4,91.4c11.7,11.7,30.8,11.7,42.4,0L805,223C816.7,211.3,816.7,192.2,805.1,180.5z
	 M430.2-21c0-64.1,51.9-116,116-116s116,51.9,116,116s-51.9,116-116,116S430.2,43.1,430.2-21z"/>
</svg>
